<?xml version="1.0" encoding="UTF-8" standalone="no"?>
<!-- Generator: Adobe Illustrator 19.0.0, SVG Export Plug-In . SVG Version: 6.00 Build 0)  -->

<svg
   xmlns:dc="http://purl.org/dc/elements/1.1/"
   xmlns:cc="http://creativecommons.org/ns#"
   xmlns:rdf="http://www.w3.org/1999/02/22-rdf-syntax-ns#"
   xmlns:svg="http://www.w3.org/2000/svg"
   xmlns="http://www.w3.org/2000/svg"
   xmlns:sodipodi="http://sodipodi.sourceforge.net/DTD/sodipodi-0.dtd"
   xmlns:inkscape="http://www.inkscape.org/namespaces/inkscape"
   version="1.1"
   id="Capa_1"
   x="0px"
   y="0px"
   viewBox="0 0 60 60"
   style="enable-background:new 0 0 60 60;"
   xml:space="preserve"
   sodipodi:docname="compact-disc.svg"
   inkscape:version="0.92.3 (2405546, 2018-03-11)"><metadata
   id="metadata3254"><rdf:RDF><cc:Work
       rdf:about=""><dc:format>image/svg+xml</dc:format><dc:type
         rdf:resource="http://purl.org/dc/dcmitype/StillImage" /><dc:title></dc:title></cc:Work></rdf:RDF></metadata><defs
   id="defs3252" /><sodipodi:namedview
   pagecolor="#ffffff"
   bordercolor="#666666"
   borderopacity="1"
   objecttolerance="10"
   gridtolerance="10"
   guidetolerance="10"
   inkscape:pageopacity="0"
   inkscape:pageshadow="2"
   inkscape:window-width="716"
   inkscape:window-height="480"
   id="namedview3250"
   showgrid="false"
   inkscape:zoom="3.9333333"
   inkscape:cx="30"
   inkscape:cy="30"
   inkscape:window-x="0"
   inkscape:window-y="0"
   inkscape:window-maximized="0"
   inkscape:current-layer="Capa_1" />
<g
   id="g3217"
   style="fill:#979ca8;fill-opacity:1">
	<path
   d="M30,0C13.458,0,0,13.458,0,30s13.458,30,30,30s30-13.458,30-30S46.542,0,30,0z M30,58C14.561,58,2,45.439,2,30   S14.561,2,30,2s28,12.561,28,28S45.439,58,30,58z"
   id="path3211"
   style="fill:#979ca8;fill-opacity:1" />
	<path
   d="M30,22c-4.411,0-8,3.589-8,8s3.589,8,8,8s8-3.589,8-8S34.411,22,30,22z M30,36c-3.309,0-6-2.691-6-6s2.691-6,6-6   s6,2.691,6,6S33.309,36,30,36z"
   id="path3213"
   style="fill:#979ca8;fill-opacity:1" />
	<path
   d="M30,16c-7.72,0-14,6.28-14,14s6.28,14,14,14s14-6.28,14-14S37.72,16,30,16z M30,42c-6.617,0-12-5.383-12-12s5.383-12,12-12   s12,5.383,12,12S36.617,42,30,42z"
   id="path3215"
   style="fill:#979ca8;fill-opacity:1" />
</g>
<g
   id="g3219">
</g>
<g
   id="g3221">
</g>
<g
   id="g3223">
</g>
<g
   id="g3225">
</g>
<g
   id="g3227">
</g>
<g
   id="g3229">
</g>
<g
   id="g3231">
</g>
<g
   id="g3233">
</g>
<g
   id="g3235">
</g>
<g
   id="g3237">
</g>
<g
   id="g3239">
</g>
<g
   id="g3241">
</g>
<g
   id="g3243">
</g>
<g
   id="g3245">
</g>
<g
   id="g3247">
</g>
</svg>