<?xml version="1.0" encoding="UTF-8" standalone="no"?>
<!-- Generator: Adobe Illustrator 19.0.0, SVG Export Plug-In . SVG Version: 6.00 Build 0)  -->

<svg
   xmlns:dc="http://purl.org/dc/elements/1.1/"
   xmlns:cc="http://creativecommons.org/ns#"
   xmlns:rdf="http://www.w3.org/1999/02/22-rdf-syntax-ns#"
   xmlns:svg="http://www.w3.org/2000/svg"
   xmlns="http://www.w3.org/2000/svg"
   xmlns:sodipodi="http://sodipodi.sourceforge.net/DTD/sodipodi-0.dtd"
   xmlns:inkscape="http://www.inkscape.org/namespaces/inkscape"
   version="1.1"
   id="Capa_1"
   x="0px"
   y="0px"
   viewBox="0 0 57 57"
   style="enable-background:new 0 0 57 57;"
   xml:space="preserve"
   sodipodi:docname="fast-forward.svg"
   inkscape:version="0.92.3 (2405546, 2018-03-11)"><metadata
   id="metadata1558"><rdf:RDF><cc:Work
       rdf:about=""><dc:format>image/svg+xml</dc:format><dc:type
         rdf:resource="http://purl.org/dc/dcmitype/StillImage" /><dc:title></dc:title></cc:Work></rdf:RDF></metadata><defs
   id="defs1556" /><sodipodi:namedview
   pagecolor="#ffffff"
   bordercolor="#666666"
   borderopacity="1"
   objecttolerance="10"
   gridtolerance="10"
   guidetolerance="10"
   inkscape:pageopacity="0"
   inkscape:pageshadow="2"
   inkscape:window-width="716"
   inkscape:window-height="480"
   id="namedview1554"
   showgrid="false"
   inkscape:zoom="4.1403509"
   inkscape:cx="28.5"
   inkscape:cy="28.5"
   inkscape:window-x="0"
   inkscape:window-y="0"
   inkscape:window-maximized="0"
   inkscape:current-layer="Capa_1" />
<path
   d="M56.575,27.683l-27-19c-0.306-0.216-0.703-0.242-1.036-0.07C28.208,8.784,28,9.127,28,9.5v17.777L1.575,8.694  C1.27,8.481,0.872,8.453,0.539,8.625C0.208,8.797,0,9.14,0,9.513v37.975c0,0.373,0.208,0.716,0.539,0.888  C0.685,48.45,0.843,48.487,1,48.487c0.202,0,0.403-0.062,0.575-0.182L28,29.723V47.5c0,0.373,0.208,0.716,0.539,0.888  C28.685,48.463,28.843,48.5,29,48.5c0.202,0,0.404-0.062,0.575-0.183l27-19C56.842,29.131,57,28.825,57,28.5  S56.842,27.869,56.575,27.683z"
   id="path1521"
   style="fill:#979ca8;fill-opacity:1" />
<g
   id="g1523">
</g>
<g
   id="g1525">
</g>
<g
   id="g1527">
</g>
<g
   id="g1529">
</g>
<g
   id="g1531">
</g>
<g
   id="g1533">
</g>
<g
   id="g1535">
</g>
<g
   id="g1537">
</g>
<g
   id="g1539">
</g>
<g
   id="g1541">
</g>
<g
   id="g1543">
</g>
<g
   id="g1545">
</g>
<g
   id="g1547">
</g>
<g
   id="g1549">
</g>
<g
   id="g1551">
</g>
</svg>