<?xml version="1.0" encoding="UTF-8" standalone="no"?>
<!DOCTYPE svg PUBLIC "-//W3C//DTD SVG 1.1//EN" "http://www.w3.org/Graphics/SVG/1.1/DTD/svg11.dtd">
<svg version="1.1" xmlns="http://www.w3.org/2000/svg" xmlns:xlink="http://www.w3.org/1999/xlink" preserveAspectRatio="xMidYMid meet" viewBox="0 0 640 640" width="640" height="640"><defs><path d="M307.93 542.51C311.37 544.94 315.82 545.23 319.56 543.3C323.28 541.38 325.61 537.52 325.61 533.34C325.61 520.03 325.61 453.5 325.61 333.74C503.64 458.93 602.54 528.48 622.32 542.39C625.74 544.78 630.21 545.09 633.95 543.16C637.66 541.23 640 537.38 640 533.19C640 490.55 640 149.44 640 106.8C640 102.62 637.66 98.77 633.95 96.83C632.31 96 630.53 95.59 628.77 95.59C626.5 95.59 624.25 96.28 622.32 97.63C602.54 111.54 503.64 181.09 325.61 306.27C325.61 186.51 325.61 119.98 325.61 106.67C325.61 102.48 323.28 98.63 319.56 96.7C317.92 95.86 316.15 95.44 314.39 95.44C312.12 95.44 309.85 96.14 307.93 97.5C277.61 118.83 35.09 289.5 4.77 310.83C1.77 312.92 0 316.35 0 320C0 323.65 1.77 327.09 4.77 329.18C65.4 371.84 277.61 521.18 307.93 542.51Z" id="abIg1M4wD"></path></defs><g><g><g><use xlink:href="#abIg1M4wD" opacity="1" fill="#979ca8" fill-opacity="1"></use><g><use xlink:href="#abIg1M4wD" opacity="1" fill-opacity="0" stroke="#000000" stroke-width="1" stroke-opacity="0"></use></g></g></g></g></svg>