<?xml version="1.0" encoding="UTF-8" standalone="no"?>
<!-- Generator: Adobe Illustrator 19.0.0, SVG Export Plug-In . SVG Version: 6.00 Build 0)  -->

<svg
   xmlns:dc="http://purl.org/dc/elements/1.1/"
   xmlns:cc="http://creativecommons.org/ns#"
   xmlns:rdf="http://www.w3.org/1999/02/22-rdf-syntax-ns#"
   xmlns:svg="http://www.w3.org/2000/svg"
   xmlns="http://www.w3.org/2000/svg"
   xmlns:sodipodi="http://sodipodi.sourceforge.net/DTD/sodipodi-0.dtd"
   xmlns:inkscape="http://www.inkscape.org/namespaces/inkscape"
   version="1.1"
   id="Capa_1"
   x="0px"
   y="0px"
   viewBox="0 0 51.997 51.997"
   style="enable-background:new 0 0 51.997 51.997;"
   xml:space="preserve"
   sodipodi:docname="like.svg"
   inkscape:version="0.92.3 (2405546, 2018-03-11)"><metadata
   id="metadata4049"><rdf:RDF><cc:Work
       rdf:about=""><dc:format>image/svg+xml</dc:format><dc:type
         rdf:resource="http://purl.org/dc/dcmitype/StillImage" /><dc:title></dc:title></cc:Work></rdf:RDF></metadata><defs
   id="defs4047" /><sodipodi:namedview
   pagecolor="#ffffff"
   bordercolor="#666666"
   borderopacity="1"
   objecttolerance="10"
   gridtolerance="10"
   guidetolerance="10"
   inkscape:pageopacity="0"
   inkscape:pageshadow="2"
   inkscape:window-width="716"
   inkscape:window-height="480"
   id="namedview4045"
   showgrid="false"
   inkscape:zoom="4.5387232"
   inkscape:cx="25.998501"
   inkscape:cy="25.998501"
   inkscape:window-x="0"
   inkscape:window-y="0"
   inkscape:window-maximized="0"
   inkscape:current-layer="Capa_1" />
<g
   id="g4012"
   style="fill:#979ca8;fill-opacity:1">
	<path
   d="M51.911,16.242C51.152,7.888,45.239,1.827,37.839,1.827c-4.93,0-9.444,2.653-11.984,6.905   c-2.517-4.307-6.846-6.906-11.697-6.906c-7.399,0-13.313,6.061-14.071,14.415c-0.06,0.369-0.306,2.311,0.442,5.478   c1.078,4.568,3.568,8.723,7.199,12.013l18.115,16.439l18.426-16.438c3.631-3.291,6.121-7.445,7.199-12.014   C52.216,18.553,51.97,16.611,51.911,16.242z M49.521,21.261c-0.984,4.172-3.265,7.973-6.59,10.985L25.855,47.481L9.072,32.25   c-3.331-3.018-5.611-6.818-6.596-10.99c-0.708-2.997-0.417-4.69-0.416-4.701l0.015-0.101C2.725,9.139,7.806,3.826,14.158,3.826   c4.687,0,8.813,2.88,10.771,7.515l0.921,2.183l0.921-2.183c1.927-4.564,6.271-7.514,11.069-7.514   c6.351,0,11.433,5.313,12.096,12.727C49.938,16.57,50.229,18.264,49.521,21.261z"
   id="path4008"
   style="fill:#979ca8;fill-opacity:1" />
	<path
   d="M15.999,7.904c-5.514,0-10,4.486-10,10c0,0.553,0.447,1,1,1s1-0.447,1-1c0-4.411,3.589-8,8-8c0.553,0,1-0.447,1-1   S16.551,7.904,15.999,7.904z"
   id="path4010"
   style="fill:#979ca8;fill-opacity:1" />
</g>
<g
   id="g4014">
</g>
<g
   id="g4016">
</g>
<g
   id="g4018">
</g>
<g
   id="g4020">
</g>
<g
   id="g4022">
</g>
<g
   id="g4024">
</g>
<g
   id="g4026">
</g>
<g
   id="g4028">
</g>
<g
   id="g4030">
</g>
<g
   id="g4032">
</g>
<g
   id="g4034">
</g>
<g
   id="g4036">
</g>
<g
   id="g4038">
</g>
<g
   id="g4040">
</g>
<g
   id="g4042">
</g>
</svg>