<?xml version="1.0" encoding="UTF-8" standalone="no"?>
<!-- Generator: Adobe Illustrator 19.0.0, SVG Export Plug-In . SVG Version: 6.00 Build 0)  -->

<svg
   xmlns:dc="http://purl.org/dc/elements/1.1/"
   xmlns:cc="http://creativecommons.org/ns#"
   xmlns:rdf="http://www.w3.org/1999/02/22-rdf-syntax-ns#"
   xmlns:svg="http://www.w3.org/2000/svg"
   xmlns="http://www.w3.org/2000/svg"
   xmlns:sodipodi="http://sodipodi.sourceforge.net/DTD/sodipodi-0.dtd"
   xmlns:inkscape="http://www.inkscape.org/namespaces/inkscape"
   version="1.1"
   id="Capa_1"
   x="0px"
   y="0px"
   viewBox="0 0 60 60"
   style="enable-background:new 0 0 60 60;"
   xml:space="preserve"
   sodipodi:docname="music-player(1).svg"
   inkscape:version="0.92.3 (2405546, 2018-03-11)"><metadata
   id="metadata6493"><rdf:RDF><cc:Work
       rdf:about=""><dc:format>image/svg+xml</dc:format><dc:type
         rdf:resource="http://purl.org/dc/dcmitype/StillImage" /><dc:title></dc:title></cc:Work></rdf:RDF></metadata><defs
   id="defs6491" /><sodipodi:namedview
   pagecolor="#ffffff"
   bordercolor="#666666"
   borderopacity="1"
   objecttolerance="10"
   gridtolerance="10"
   guidetolerance="10"
   inkscape:pageopacity="0"
   inkscape:pageshadow="2"
   inkscape:window-width="716"
   inkscape:window-height="480"
   id="namedview6489"
   showgrid="false"
   inkscape:zoom="3.9333333"
   inkscape:cx="30"
   inkscape:cy="30"
   inkscape:window-x="0"
   inkscape:window-y="0"
   inkscape:window-maximized="0"
   inkscape:current-layer="Capa_1" />
<g
   id="g6456"
   style="fill:#979ca8;fill-opacity:1">
	<path
   d="M10,4H8H0v52h8h2h50V4H10z M8,54H2V6h6V54z M58,54H10V6h48V54z"
   id="path6452"
   style="fill:#979ca8;fill-opacity:1" />
	<path
   d="M21.5,47c3.533,0,6.411-2.617,6.492-5.86C27.993,41.126,28,41.115,28,41.102V23.854l17-2.684v9.51   C43.831,29.642,42.246,29,40.5,29c-3.584,0-6.5,2.691-6.5,6s2.916,6,6.5,6s6.5-2.691,6.5-6V20v-5v-1c0-0.292-0.128-0.57-0.351-0.76   c-0.222-0.19-0.51-0.274-0.806-0.228l-19,3C26.358,16.089,26,16.508,26,17v3.286V23v13.68C24.831,35.642,23.246,35,21.5,35   c-3.584,0-6.5,2.691-6.5,6S17.916,47,21.5,47z M40.5,39c-2.481,0-4.5-1.794-4.5-4s2.019-4,4.5-4s4.5,1.794,4.5,4S42.981,39,40.5,39   z M28,17.854l17-2.685v3.976L28,21.83v-1.544V17.854z M21.5,37c2.481,0,4.5,1.794,4.5,4s-2.019,4-4.5,4S17,43.206,17,41   S19.019,37,21.5,37z"
   id="path6454"
   style="fill:#979ca8;fill-opacity:1" />
</g>
<g
   id="g6458">
</g>
<g
   id="g6460">
</g>
<g
   id="g6462">
</g>
<g
   id="g6464">
</g>
<g
   id="g6466">
</g>
<g
   id="g6468">
</g>
<g
   id="g6470">
</g>
<g
   id="g6472">
</g>
<g
   id="g6474">
</g>
<g
   id="g6476">
</g>
<g
   id="g6478">
</g>
<g
   id="g6480">
</g>
<g
   id="g6482">
</g>
<g
   id="g6484">
</g>
<g
   id="g6486">
</g>
</svg>