<?xml version="1.0" encoding="UTF-8" standalone="no"?>
<!-- Generator: Adobe Illustrator 16.0.0, SVG Export Plug-In . SVG Version: 6.00 Build 0)  -->

<svg
   xmlns:dc="http://purl.org/dc/elements/1.1/"
   xmlns:cc="http://creativecommons.org/ns#"
   xmlns:rdf="http://www.w3.org/1999/02/22-rdf-syntax-ns#"
   xmlns:svg="http://www.w3.org/2000/svg"
   xmlns="http://www.w3.org/2000/svg"
   xmlns:sodipodi="http://sodipodi.sourceforge.net/DTD/sodipodi-0.dtd"
   xmlns:inkscape="http://www.inkscape.org/namespaces/inkscape"
   version="1.1"
   id="Capa_1"
   x="0px"
   y="0px"
   width="45.812px"
   height="45.812px"
   viewBox="0 0 45.812 45.812"
   style="enable-background:new 0 0 45.812 45.812;"
   xml:space="preserve"
   sodipodi:docname="pause-button-turquoise.svg"
   inkscape:version="0.92.3 (2405546, 2018-03-11)"><metadata
   id="metadata14836"><rdf:RDF><cc:Work
       rdf:about=""><dc:format>image/svg+xml</dc:format><dc:type
         rdf:resource="http://purl.org/dc/dcmitype/StillImage" /><dc:title></dc:title></cc:Work></rdf:RDF></metadata><defs
   id="defs14834" /><sodipodi:namedview
   pagecolor="#ffffff"
   bordercolor="#666666"
   borderopacity="1"
   objecttolerance="10"
   gridtolerance="10"
   guidetolerance="10"
   inkscape:pageopacity="0"
   inkscape:pageshadow="2"
   inkscape:window-width="716"
   inkscape:window-height="480"
   id="namedview14832"
   showgrid="false"
   inkscape:zoom="5.1514887"
   inkscape:cx="22.906"
   inkscape:cy="22.906"
   inkscape:window-x="0"
   inkscape:window-y="0"
   inkscape:window-maximized="0"
   inkscape:current-layer="Capa_1" />
<g
   id="g14799"
   style="fill:#1de9b6;fill-opacity:1">
	<g
   id="g14797"
   style="fill:#1de9b6;fill-opacity:1">
		<g
   id="g14795"
   style="fill:#1de9b6;fill-opacity:1">
			<path
   d="M39.104,6.708c-8.946-8.943-23.449-8.946-32.395,0c-8.946,8.944-8.946,23.447,0,32.394     c8.944,8.946,23.449,8.946,32.395,0C48.047,30.156,48.047,15.653,39.104,6.708z M20.051,31.704c0,1.459-1.183,2.64-2.641,2.64     s-2.64-1.181-2.64-2.64V14.108c0-1.457,1.182-2.64,2.64-2.64s2.641,1.183,2.641,2.64V31.704z M31.041,31.704     c0,1.459-1.183,2.64-2.64,2.64s-2.64-1.181-2.64-2.64V14.108c0-1.457,1.183-2.64,2.64-2.64s2.64,1.183,2.64,2.64V31.704z"
   id="path14793"
   style="fill:#1de9b6;fill-opacity:1" />
		</g>
	</g>
</g>
<g
   id="g14801">
</g>
<g
   id="g14803">
</g>
<g
   id="g14805">
</g>
<g
   id="g14807">
</g>
<g
   id="g14809">
</g>
<g
   id="g14811">
</g>
<g
   id="g14813">
</g>
<g
   id="g14815">
</g>
<g
   id="g14817">
</g>
<g
   id="g14819">
</g>
<g
   id="g14821">
</g>
<g
   id="g14823">
</g>
<g
   id="g14825">
</g>
<g
   id="g14827">
</g>
<g
   id="g14829">
</g>
</svg>