<?xml version="1.0" encoding="UTF-8" standalone="no"?>
<!-- Generator: Adobe Illustrator 19.0.0, SVG Export Plug-In . SVG Version: 6.00 Build 0)  -->

<svg
   xmlns:dc="http://purl.org/dc/elements/1.1/"
   xmlns:cc="http://creativecommons.org/ns#"
   xmlns:rdf="http://www.w3.org/1999/02/22-rdf-syntax-ns#"
   xmlns:svg="http://www.w3.org/2000/svg"
   xmlns="http://www.w3.org/2000/svg"
   xmlns:sodipodi="http://sodipodi.sourceforge.net/DTD/sodipodi-0.dtd"
   xmlns:inkscape="http://www.inkscape.org/namespaces/inkscape"
   version="1.1"
   id="Capa_1"
   x="0px"
   y="0px"
   viewBox="0 0 59 59"
   style="enable-background:new 0 0 59 59;"
   xml:space="preserve"
   sodipodi:docname="share-white.svg"
   inkscape:version="0.92.3 (2405546, 2018-03-11)"><metadata
   id="metadata15457"><rdf:RDF><cc:Work
       rdf:about=""><dc:format>image/svg+xml</dc:format><dc:type
         rdf:resource="http://purl.org/dc/dcmitype/StillImage" /><dc:title></dc:title></cc:Work></rdf:RDF></metadata><defs
   id="defs15455" /><sodipodi:namedview
   pagecolor="#ffffff"
   bordercolor="#666666"
   borderopacity="1"
   objecttolerance="10"
   gridtolerance="10"
   guidetolerance="10"
   inkscape:pageopacity="0"
   inkscape:pageshadow="2"
   inkscape:window-width="716"
   inkscape:window-height="480"
   id="namedview15453"
   showgrid="false"
   inkscape:zoom="4"
   inkscape:cx="-1.625"
   inkscape:cy="29.5"
   inkscape:window-x="0"
   inkscape:window-y="0"
   inkscape:window-maximized="0"
   inkscape:current-layer="Capa_1" />
<path
   d="M47,39c-2.671,0-5.182,1.04-7.071,2.929c-0.524,0.524-0.975,1.1-1.365,1.709l-17.28-10.489  C21.741,32.005,22,30.761,22,29.456c0-1.305-0.259-2.549-0.715-3.693l17.284-10.409C40.345,18.142,43.456,20,47,20  c5.514,0,10-4.486,10-10S52.514,0,47,0S37,4.486,37,10c0,1.256,0.243,2.454,0.667,3.562L20.361,23.985  c-1.788-2.724-4.866-4.529-8.361-4.529c-5.514,0-10,4.486-10,10s4.486,10,10,10c3.495,0,6.572-1.805,8.36-4.529L37.664,45.43  C37.234,46.556,37,47.759,37,49c0,2.671,1.04,5.183,2.929,7.071C41.818,57.96,44.329,59,47,59s5.182-1.04,7.071-2.929  C55.96,54.183,57,51.671,57,49s-1.04-5.183-2.929-7.071C52.182,40.04,49.671,39,47,39z"
   id="path15420"
   style="fill:#ffffff;fill-opacity:1" />
<g
   id="g15422">
</g>
<g
   id="g15424">
</g>
<g
   id="g15426">
</g>
<g
   id="g15428">
</g>
<g
   id="g15430">
</g>
<g
   id="g15432">
</g>
<g
   id="g15434">
</g>
<g
   id="g15436">
</g>
<g
   id="g15438">
</g>
<g
   id="g15440">
</g>
<g
   id="g15442">
</g>
<g
   id="g15444">
</g>
<g
   id="g15446">
</g>
<g
   id="g15448">
</g>
<g
   id="g15450">
</g>
</svg>