<?xml version="1.0" encoding="UTF-8" standalone="no"?>
<svg
   xmlns:dc="http://purl.org/dc/elements/1.1/"
   xmlns:cc="http://creativecommons.org/ns#"
   xmlns:rdf="http://www.w3.org/1999/02/22-rdf-syntax-ns#"
   xmlns:svg="http://www.w3.org/2000/svg"
   xmlns="http://www.w3.org/2000/svg"
   xmlns:sodipodi="http://sodipodi.sourceforge.net/DTD/sodipodi-0.dtd"
   xmlns:inkscape="http://www.inkscape.org/namespaces/inkscape"
   width="21.555"
   height="18.305"
   viewBox="0 0 21.555 18.305"
   version="1.1"
   id="svg9890"
   sodipodi:docname="shuffle.svg"
   inkscape:version="0.92.3 (2405546, 2018-03-11)">
  <metadata
     id="metadata9896">
    <rdf:RDF>
      <cc:Work
         rdf:about="">
        <dc:format>image/svg+xml</dc:format>
        <dc:type
           rdf:resource="http://purl.org/dc/dcmitype/StillImage" />
        <dc:title></dc:title>
      </cc:Work>
    </rdf:RDF>
  </metadata>
  <defs
     id="defs9894" />
  <sodipodi:namedview
     pagecolor="#ffffff"
     bordercolor="#666666"
     borderopacity="1"
     objecttolerance="10"
     gridtolerance="10"
     guidetolerance="10"
     inkscape:pageopacity="0"
     inkscape:pageshadow="2"
     inkscape:window-width="716"
     inkscape:window-height="480"
     id="namedview9892"
     showgrid="false"
     inkscape:zoom="12.892652"
     inkscape:cx="10.7775"
     inkscape:cy="9.1525002"
     inkscape:window-x="0"
     inkscape:window-y="0"
     inkscape:window-maximized="0"
     inkscape:current-layer="svg9890" />
  <path
     id="shuffle"
     d="M16.266,8h.991v3.084l4.3-4.336-4.3-4.338V4.983h-.991c-3.981,0-6.225,2.951-8.205,5.552C6.279,12.876,4.74,14.9,2.254,14.9H0v3.016H2.255c3.981,0,6.225-2.949,8.205-5.552C12.241,10.021,13.78,8,16.266,8ZM5.83,9.9c.17-.219.341-.444.514-.672.42-.554.866-1.137,1.349-1.72A7.722,7.722,0,0,0,2.255,5.2H0V8.216H2.255A4.989,4.989,0,0,1,5.829,9.9Zm11.426,5.211h-.991A5.155,5.155,0,0,1,12.5,13.241l-.327.428c-.476.625-.986,1.295-1.551,1.959a7.83,7.83,0,0,0,5.638,2.5h.991v2.584l4.3-4.338-4.3-4.338v3.073Z"
     transform="translate(0.001 -2.411)"
     fill="#444"
     style="fill:#979ca8;fill-opacity:1" />
</svg>
