<svg xmlns="http://www.w3.org/2000/svg" width="21.555" height="18.305" viewBox="0 0 21.555 18.305">
  <path id="shuffle" d="M16.266,8h.991v3.084l4.3-4.336-4.3-4.338V4.983h-.991c-3.981,0-6.225,2.951-8.205,5.552C6.279,12.876,4.74,14.9,2.254,14.9H0v3.016H2.255c3.981,0,6.225-2.949,8.205-5.552C12.241,10.021,13.78,8,16.266,8ZM5.83,9.9c.17-.219.341-.444.514-.672.42-.554.866-1.137,1.349-1.72A7.722,7.722,0,0,0,2.255,5.2H0V8.216H2.255A4.989,4.989,0,0,1,5.829,9.9Zm11.426,5.211h-.991A5.155,5.155,0,0,1,12.5,13.241l-.327.428c-.476.625-.986,1.295-1.551,1.959a7.83,7.83,0,0,0,5.638,2.5h.991v2.584l4.3-4.338-4.3-4.338v3.073Z" transform="translate(0.001 -2.411)" fill="#444"/>
</svg>
